<mxfile host="app.diagrams.net" modified="2024-09-08T15:43:59.975Z" agent="Mozilla/5.0 (Macintosh; Intel Mac OS X 10_15_7) AppleWebKit/537.36 (KHTML, like Gecko) Chrome/128.0.0.0 Safari/537.36 Edg/128.0.0.0" etag="PGH6G6WBu-6cnq7dl_QD" version="24.6.5" type="github">
  <diagram name="第 1 页" id="L7j6VMS08V03UZehalkH">
    <mxGraphModel dx="1859" dy="625" grid="1" gridSize="10" guides="1" tooltips="1" connect="1" arrows="1" fold="1" page="1" pageScale="1" pageWidth="827" pageHeight="1169" math="0" shadow="0">
      <root>
        <mxCell id="0" />
        <mxCell id="1" parent="0" />
        <mxCell id="dhrCfTJYzPtT5JMYGl7l-1" value="&lt;span style=&quot;text-align: start; font-size: 12pt; font-family: &amp;quot;Times New Roman&amp;quot;, serif;&quot; lang=&quot;EN-US&quot;&gt;Electric Load&lt;/span&gt;&lt;span style=&quot;font-size: medium; text-align: start;&quot;&gt;&lt;/span&gt;" style="rounded=0;whiteSpace=wrap;html=1;" vertex="1" parent="1">
          <mxGeometry x="200" y="310" width="120" height="60" as="geometry" />
        </mxCell>
        <mxCell id="dhrCfTJYzPtT5JMYGl7l-2" value="&lt;span style=&quot;text-align: start; font-size: 12pt; font-family: 仿宋_GB2312;&quot;&gt;户号&lt;/span&gt;&lt;span style=&quot;font-size: medium; text-align: start;&quot;&gt;&lt;/span&gt;" style="ellipse;whiteSpace=wrap;html=1;" vertex="1" parent="1">
          <mxGeometry x="220" y="120" width="80" height="50" as="geometry" />
        </mxCell>
        <mxCell id="dhrCfTJYzPtT5JMYGl7l-3" value="&lt;span style=&quot;text-align: start; font-size: 12pt; font-family: 仿宋_GB2312;&quot;&gt;行业&lt;/span&gt;&lt;span style=&quot;font-size: medium; text-align: start;&quot;&gt;&lt;/span&gt;" style="ellipse;whiteSpace=wrap;html=1;" vertex="1" parent="1">
          <mxGeometry x="340" y="120" width="80" height="50" as="geometry" />
        </mxCell>
        <mxCell id="dhrCfTJYzPtT5JMYGl7l-4" value="&lt;span style=&quot;text-align: start; font-size: 12pt; font-family: 仿宋_GB2312;&quot;&gt;时间&lt;/span&gt;&lt;span style=&quot;font-size: medium; text-align: start;&quot;&gt;&lt;/span&gt;" style="ellipse;whiteSpace=wrap;html=1;" vertex="1" parent="1">
          <mxGeometry x="130" y="130" width="80" height="50" as="geometry" />
        </mxCell>
        <mxCell id="dhrCfTJYzPtT5JMYGl7l-5" value="&lt;span style=&quot;text-align: start; font-size: 12pt; font-family: 仿宋_GB2312;&quot;&gt;地点&lt;/span&gt;" style="ellipse;whiteSpace=wrap;html=1;" vertex="1" parent="1">
          <mxGeometry x="60" y="190" width="80" height="50" as="geometry" />
        </mxCell>
        <mxCell id="dhrCfTJYzPtT5JMYGl7l-8" style="rounded=0;orthogonalLoop=1;jettySize=auto;html=1;entryX=0.5;entryY=0;entryDx=0;entryDy=0;endArrow=none;endFill=0;" edge="1" parent="1" source="dhrCfTJYzPtT5JMYGl7l-6" target="dhrCfTJYzPtT5JMYGl7l-1">
          <mxGeometry relative="1" as="geometry" />
        </mxCell>
        <mxCell id="dhrCfTJYzPtT5JMYGl7l-6" value="&lt;span style=&quot;text-align: start; font-size: 12pt; font-family: 仿宋_GB2312;&quot;&gt;负荷&lt;/span&gt;&lt;span style=&quot;text-align: start; font-size: 12pt; font-family: &amp;quot;Times New Roman&amp;quot;, serif;&quot; lang=&quot;EN-US&quot;&gt;ID&lt;/span&gt;&lt;span style=&quot;font-size: medium; text-align: start;&quot;&gt;&lt;/span&gt;" style="ellipse;whiteSpace=wrap;html=1;" vertex="1" parent="1">
          <mxGeometry x="40" y="260" width="80" height="50" as="geometry" />
        </mxCell>
        <mxCell id="dhrCfTJYzPtT5JMYGl7l-7" value="&lt;span style=&quot;text-align: start; font-size: 12pt; font-family: &amp;quot;Times New Roman&amp;quot;, serif;&quot; lang=&quot;EN-US&quot;&gt;96&lt;/span&gt;&lt;span style=&quot;text-align: start; font-size: 12pt; font-family: 仿宋_GB2312;&quot;&gt;点数据&lt;/span&gt;&lt;span style=&quot;font-size: medium; text-align: start;&quot;&gt;&lt;/span&gt;" style="ellipse;whiteSpace=wrap;html=1;" vertex="1" parent="1">
          <mxGeometry x="440" y="170" width="80" height="50" as="geometry" />
        </mxCell>
        <mxCell id="dhrCfTJYzPtT5JMYGl7l-9" style="rounded=0;orthogonalLoop=1;jettySize=auto;html=1;entryX=0.5;entryY=0;entryDx=0;entryDy=0;endArrow=none;endFill=0;" edge="1" parent="1" source="dhrCfTJYzPtT5JMYGl7l-5" target="dhrCfTJYzPtT5JMYGl7l-1">
          <mxGeometry relative="1" as="geometry">
            <mxPoint x="48" y="183" as="sourcePoint" />
            <mxPoint x="220" y="350" as="targetPoint" />
          </mxGeometry>
        </mxCell>
        <mxCell id="dhrCfTJYzPtT5JMYGl7l-10" style="rounded=0;orthogonalLoop=1;jettySize=auto;html=1;entryX=0.5;entryY=0;entryDx=0;entryDy=0;endArrow=none;endFill=0;" edge="1" parent="1" source="dhrCfTJYzPtT5JMYGl7l-4" target="dhrCfTJYzPtT5JMYGl7l-1">
          <mxGeometry relative="1" as="geometry">
            <mxPoint x="58" y="193" as="sourcePoint" />
            <mxPoint x="230" y="360" as="targetPoint" />
          </mxGeometry>
        </mxCell>
        <mxCell id="dhrCfTJYzPtT5JMYGl7l-11" style="rounded=0;orthogonalLoop=1;jettySize=auto;html=1;entryX=0.5;entryY=0;entryDx=0;entryDy=0;endArrow=none;endFill=0;" edge="1" parent="1" source="dhrCfTJYzPtT5JMYGl7l-2" target="dhrCfTJYzPtT5JMYGl7l-1">
          <mxGeometry relative="1" as="geometry">
            <mxPoint x="68" y="203" as="sourcePoint" />
            <mxPoint x="240" y="370" as="targetPoint" />
          </mxGeometry>
        </mxCell>
        <mxCell id="dhrCfTJYzPtT5JMYGl7l-12" style="rounded=0;orthogonalLoop=1;jettySize=auto;html=1;entryX=0.5;entryY=0;entryDx=0;entryDy=0;endArrow=none;endFill=0;" edge="1" parent="1" source="dhrCfTJYzPtT5JMYGl7l-3" target="dhrCfTJYzPtT5JMYGl7l-1">
          <mxGeometry relative="1" as="geometry">
            <mxPoint x="78" y="213" as="sourcePoint" />
            <mxPoint x="250" y="380" as="targetPoint" />
          </mxGeometry>
        </mxCell>
        <mxCell id="dhrCfTJYzPtT5JMYGl7l-13" style="rounded=0;orthogonalLoop=1;jettySize=auto;html=1;entryX=0.5;entryY=0;entryDx=0;entryDy=0;endArrow=none;endFill=0;" edge="1" parent="1" source="dhrCfTJYzPtT5JMYGl7l-7" target="dhrCfTJYzPtT5JMYGl7l-1">
          <mxGeometry relative="1" as="geometry">
            <mxPoint x="88" y="223" as="sourcePoint" />
            <mxPoint x="260" y="390" as="targetPoint" />
          </mxGeometry>
        </mxCell>
        <mxCell id="dhrCfTJYzPtT5JMYGl7l-15" value="&lt;span style=&quot;text-align: start; font-size: 12pt; font-family: &amp;quot;Times New Roman&amp;quot;, serif;&quot; lang=&quot;EN-US&quot;&gt;Basic Load Features&lt;/span&gt;&lt;span style=&quot;font-size: medium; text-align: start;&quot;&gt;&lt;/span&gt;" style="rounded=0;whiteSpace=wrap;html=1;" vertex="1" parent="1">
          <mxGeometry x="660" y="307.5" width="120" height="60" as="geometry" />
        </mxCell>
        <mxCell id="dhrCfTJYzPtT5JMYGl7l-16" value="&lt;span style=&quot;text-align: start; font-size: 12pt; font-family: 仿宋_GB2312;&quot;&gt;负荷&lt;/span&gt;&lt;span style=&quot;text-align: start; font-size: 12pt; font-family: &amp;quot;Times New Roman&amp;quot;, serif;&quot; lang=&quot;EN-US&quot;&gt;ID&lt;/span&gt;&lt;span style=&quot;font-size: medium; text-align: start;&quot;&gt;&lt;/span&gt;" style="ellipse;whiteSpace=wrap;html=1;" vertex="1" parent="1">
          <mxGeometry x="550" y="155" width="80" height="50" as="geometry" />
        </mxCell>
        <mxCell id="dhrCfTJYzPtT5JMYGl7l-17" value="&lt;span style=&quot;text-align: start; font-size: 12pt; font-family: 仿宋_GB2312;&quot;&gt;经纬度&lt;/span&gt;&lt;span style=&quot;font-size: medium; text-align: start;&quot;&gt;&lt;/span&gt;" style="ellipse;whiteSpace=wrap;html=1;" vertex="1" parent="1">
          <mxGeometry x="900" y="175" width="80" height="50" as="geometry" />
        </mxCell>
        <mxCell id="dhrCfTJYzPtT5JMYGl7l-18" value="&lt;span style=&quot;text-align: start; font-size: 12pt; font-family: 仿宋_GB2312;&quot;&gt;平均负荷&lt;/span&gt;&lt;span style=&quot;font-size: medium; text-align: start;&quot;&gt;&lt;/span&gt;" style="ellipse;whiteSpace=wrap;html=1;" vertex="1" parent="1">
          <mxGeometry x="840" y="105" width="80" height="50" as="geometry" />
        </mxCell>
        <mxCell id="dhrCfTJYzPtT5JMYGl7l-19" value="&lt;span style=&quot;text-align: start; font-size: 12pt; font-family: 仿宋_GB2312;&quot;&gt;最小负荷&lt;/span&gt;&lt;span style=&quot;font-size: medium; text-align: start;&quot;&gt;&lt;/span&gt;" style="ellipse;whiteSpace=wrap;html=1;" vertex="1" parent="1">
          <mxGeometry x="720" y="85" width="80" height="50" as="geometry" />
        </mxCell>
        <mxCell id="dhrCfTJYzPtT5JMYGl7l-20" value="&lt;span style=&quot;text-align: start; font-size: 12pt; font-family: 仿宋_GB2312;&quot;&gt;最大负荷&lt;/span&gt;&lt;span style=&quot;font-size: medium; text-align: start;&quot;&gt;&lt;/span&gt;" style="ellipse;whiteSpace=wrap;html=1;" vertex="1" parent="1">
          <mxGeometry x="610" y="105" width="80" height="50" as="geometry" />
        </mxCell>
        <mxCell id="dhrCfTJYzPtT5JMYGl7l-21" style="rounded=0;orthogonalLoop=1;jettySize=auto;html=1;endArrow=none;endFill=0;entryX=0.5;entryY=0;entryDx=0;entryDy=0;" edge="1" parent="1" source="dhrCfTJYzPtT5JMYGl7l-16" target="dhrCfTJYzPtT5JMYGl7l-15">
          <mxGeometry relative="1" as="geometry">
            <mxPoint x="450" y="205" as="sourcePoint" />
            <mxPoint x="910" y="270" as="targetPoint" />
          </mxGeometry>
        </mxCell>
        <mxCell id="dhrCfTJYzPtT5JMYGl7l-22" style="rounded=0;orthogonalLoop=1;jettySize=auto;html=1;endArrow=none;endFill=0;entryX=0.5;entryY=0;entryDx=0;entryDy=0;" edge="1" parent="1" source="dhrCfTJYzPtT5JMYGl7l-20" target="dhrCfTJYzPtT5JMYGl7l-15">
          <mxGeometry relative="1" as="geometry">
            <mxPoint x="460" y="215" as="sourcePoint" />
            <mxPoint x="910" y="270" as="targetPoint" />
            <Array as="points" />
          </mxGeometry>
        </mxCell>
        <mxCell id="dhrCfTJYzPtT5JMYGl7l-23" style="rounded=0;orthogonalLoop=1;jettySize=auto;html=1;endArrow=none;endFill=0;entryX=0.5;entryY=0;entryDx=0;entryDy=0;" edge="1" parent="1" source="dhrCfTJYzPtT5JMYGl7l-19" target="dhrCfTJYzPtT5JMYGl7l-15">
          <mxGeometry relative="1" as="geometry">
            <mxPoint x="470" y="225" as="sourcePoint" />
            <mxPoint x="910" y="270" as="targetPoint" />
          </mxGeometry>
        </mxCell>
        <mxCell id="dhrCfTJYzPtT5JMYGl7l-24" style="rounded=0;orthogonalLoop=1;jettySize=auto;html=1;entryX=0.5;entryY=0;entryDx=0;entryDy=0;endArrow=none;endFill=0;" edge="1" parent="1" source="dhrCfTJYzPtT5JMYGl7l-18" target="dhrCfTJYzPtT5JMYGl7l-15">
          <mxGeometry relative="1" as="geometry">
            <mxPoint x="480" y="235" as="sourcePoint" />
            <mxPoint x="310" y="350" as="targetPoint" />
          </mxGeometry>
        </mxCell>
        <mxCell id="dhrCfTJYzPtT5JMYGl7l-25" style="rounded=0;orthogonalLoop=1;jettySize=auto;html=1;entryX=0.5;entryY=0;entryDx=0;entryDy=0;endArrow=none;endFill=0;" edge="1" parent="1" source="dhrCfTJYzPtT5JMYGl7l-17" target="dhrCfTJYzPtT5JMYGl7l-15">
          <mxGeometry relative="1" as="geometry">
            <mxPoint x="490" y="245" as="sourcePoint" />
            <mxPoint x="320" y="360" as="targetPoint" />
          </mxGeometry>
        </mxCell>
        <mxCell id="dhrCfTJYzPtT5JMYGl7l-27" value="&lt;span style=&quot;text-align: start; font-size: 12pt; font-family: &amp;quot;Times New Roman&amp;quot;, serif;&quot; lang=&quot;EN-US&quot;&gt;Load Wavelet Transform&lt;/span&gt;&lt;span style=&quot;font-size: medium; text-align: start;&quot;&gt;&lt;/span&gt;" style="rounded=0;whiteSpace=wrap;html=1;" vertex="1" parent="1">
          <mxGeometry x="200" y="525" width="120" height="60" as="geometry" />
        </mxCell>
        <mxCell id="dhrCfTJYzPtT5JMYGl7l-28" value="&lt;span style=&quot;text-align: start; font-size: 12pt; font-family: &amp;quot;Times New Roman&amp;quot;, serif;&quot; lang=&quot;EN-US&quot;&gt;Load DTW&lt;/span&gt;&lt;span style=&quot;font-size: medium; text-align: start;&quot;&gt;&lt;/span&gt;" style="rounded=0;whiteSpace=wrap;html=1;" vertex="1" parent="1">
          <mxGeometry x="-110" y="370" width="120" height="60" as="geometry" />
        </mxCell>
        <mxCell id="dhrCfTJYzPtT5JMYGl7l-29" value="&lt;span style=&quot;text-align: start; font-size: 12pt; font-family: &amp;quot;Times New Roman&amp;quot;, serif;&quot; lang=&quot;EN-US&quot;&gt;Load Improvement Change&lt;/span&gt;&lt;span style=&quot;font-size: medium; text-align: start;&quot;&gt;&lt;/span&gt;" style="rounded=0;whiteSpace=wrap;html=1;" vertex="1" parent="1">
          <mxGeometry x="660" y="525" width="120" height="60" as="geometry" />
        </mxCell>
        <mxCell id="dhrCfTJYzPtT5JMYGl7l-30" value="&lt;span style=&quot;text-align: start; font-size: 12pt; font-family: &amp;quot;Times New Roman&amp;quot;, serif;&quot; lang=&quot;EN-US&quot;&gt;Load Pearson Distance&lt;/span&gt;&lt;span style=&quot;font-size: medium; text-align: start;&quot;&gt;&lt;/span&gt;" style="rounded=0;whiteSpace=wrap;html=1;" vertex="1" parent="1">
          <mxGeometry x="-100" y="530" width="120" height="60" as="geometry" />
        </mxCell>
        <mxCell id="dhrCfTJYzPtT5JMYGl7l-31" value="&lt;span style=&quot;text-align: start; font-size: 12pt; font-family: 仿宋_GB2312;&quot;&gt;负荷&lt;/span&gt;&lt;span style=&quot;text-align: start; font-size: 12pt; font-family: &amp;quot;Times New Roman&amp;quot;, serif;&quot; lang=&quot;EN-US&quot;&gt;ID&lt;/span&gt;&lt;span style=&quot;font-size: medium; text-align: start;&quot;&gt;&lt;/span&gt;" style="ellipse;whiteSpace=wrap;html=1;" vertex="1" parent="1">
          <mxGeometry x="60" y="650" width="80" height="50" as="geometry" />
        </mxCell>
        <mxCell id="dhrCfTJYzPtT5JMYGl7l-32" value="&lt;span style=&quot;text-align: start; font-size: 12pt; font-family: &amp;quot;Times New Roman&amp;quot;, serif;&quot; lang=&quot;EN-US&quot;&gt;cA3&lt;/span&gt;&lt;span style=&quot;font-size: medium; text-align: start;&quot;&gt;&lt;/span&gt;" style="ellipse;whiteSpace=wrap;html=1;" vertex="1" parent="1">
          <mxGeometry x="130" y="700" width="80" height="50" as="geometry" />
        </mxCell>
        <mxCell id="dhrCfTJYzPtT5JMYGl7l-33" value="&lt;span style=&quot;text-align: start; font-size: 12pt; font-family: &amp;quot;Times New Roman&amp;quot;, serif;&quot; lang=&quot;EN-US&quot;&gt;cD3&lt;/span&gt;&lt;span style=&quot;font-size: medium; text-align: start;&quot;&gt;&lt;/span&gt;" style="ellipse;whiteSpace=wrap;html=1;" vertex="1" parent="1">
          <mxGeometry x="230" y="720" width="80" height="50" as="geometry" />
        </mxCell>
        <mxCell id="dhrCfTJYzPtT5JMYGl7l-34" value="&lt;span style=&quot;text-align: start; font-size: 12pt; font-family: &amp;quot;Times New Roman&amp;quot;, serif;&quot; lang=&quot;EN-US&quot;&gt;cD2&lt;/span&gt;" style="ellipse;whiteSpace=wrap;html=1;" vertex="1" parent="1">
          <mxGeometry x="334" y="690" width="80" height="50" as="geometry" />
        </mxCell>
        <mxCell id="dhrCfTJYzPtT5JMYGl7l-35" value="&lt;span style=&quot;text-align: start; font-size: 12pt; font-family: &amp;quot;Times New Roman&amp;quot;, serif;&quot; lang=&quot;EN-US&quot;&gt;cD1&lt;/span&gt;" style="ellipse;whiteSpace=wrap;html=1;" vertex="1" parent="1">
          <mxGeometry x="414" y="640" width="80" height="50" as="geometry" />
        </mxCell>
        <mxCell id="dhrCfTJYzPtT5JMYGl7l-36" style="rounded=0;orthogonalLoop=1;jettySize=auto;html=1;endArrow=none;endFill=0;entryX=0.5;entryY=1;entryDx=0;entryDy=0;" edge="1" parent="1" source="dhrCfTJYzPtT5JMYGl7l-31" target="dhrCfTJYzPtT5JMYGl7l-27">
          <mxGeometry relative="1" as="geometry">
            <mxPoint x="129" y="300" as="sourcePoint" />
            <mxPoint x="280" y="550" as="targetPoint" />
          </mxGeometry>
        </mxCell>
        <mxCell id="dhrCfTJYzPtT5JMYGl7l-37" style="rounded=0;orthogonalLoop=1;jettySize=auto;html=1;endArrow=none;endFill=0;entryX=0.5;entryY=1;entryDx=0;entryDy=0;" edge="1" parent="1" source="dhrCfTJYzPtT5JMYGl7l-32" target="dhrCfTJYzPtT5JMYGl7l-27">
          <mxGeometry relative="1" as="geometry">
            <mxPoint x="139" y="310" as="sourcePoint" />
            <mxPoint x="280" y="550" as="targetPoint" />
          </mxGeometry>
        </mxCell>
        <mxCell id="dhrCfTJYzPtT5JMYGl7l-38" style="rounded=0;orthogonalLoop=1;jettySize=auto;html=1;entryX=0.5;entryY=1;entryDx=0;entryDy=0;endArrow=none;endFill=0;" edge="1" parent="1" source="dhrCfTJYzPtT5JMYGl7l-33" target="dhrCfTJYzPtT5JMYGl7l-27">
          <mxGeometry relative="1" as="geometry">
            <mxPoint x="149" y="320" as="sourcePoint" />
            <mxPoint x="300" y="340" as="targetPoint" />
          </mxGeometry>
        </mxCell>
        <mxCell id="dhrCfTJYzPtT5JMYGl7l-39" style="rounded=0;orthogonalLoop=1;jettySize=auto;html=1;entryX=0.5;entryY=1;entryDx=0;entryDy=0;endArrow=none;endFill=0;" edge="1" parent="1" source="dhrCfTJYzPtT5JMYGl7l-34" target="dhrCfTJYzPtT5JMYGl7l-27">
          <mxGeometry relative="1" as="geometry">
            <mxPoint x="159" y="330" as="sourcePoint" />
            <mxPoint x="310" y="350" as="targetPoint" />
          </mxGeometry>
        </mxCell>
        <mxCell id="dhrCfTJYzPtT5JMYGl7l-40" style="rounded=0;orthogonalLoop=1;jettySize=auto;html=1;entryX=0.5;entryY=1;entryDx=0;entryDy=0;endArrow=none;endFill=0;" edge="1" parent="1" source="dhrCfTJYzPtT5JMYGl7l-35" target="dhrCfTJYzPtT5JMYGl7l-27">
          <mxGeometry relative="1" as="geometry">
            <mxPoint x="169" y="340" as="sourcePoint" />
            <mxPoint x="320" y="360" as="targetPoint" />
          </mxGeometry>
        </mxCell>
        <mxCell id="dhrCfTJYzPtT5JMYGl7l-41" value="&lt;span style=&quot;text-align: start; font-size: 12pt; font-family: 仿宋_GB2312;&quot;&gt;负荷&lt;/span&gt;&lt;span style=&quot;text-align: start; font-size: 12pt; font-family: &amp;quot;Times New Roman&amp;quot;, serif;&quot; lang=&quot;EN-US&quot;&gt;ID&lt;/span&gt;&lt;span style=&quot;font-size: medium; text-align: start;&quot;&gt;&lt;/span&gt;" style="ellipse;whiteSpace=wrap;html=1;" vertex="1" parent="1">
          <mxGeometry x="610" y="680" width="80" height="50" as="geometry" />
        </mxCell>
        <mxCell id="dhrCfTJYzPtT5JMYGl7l-42" value="&lt;div style=&quot;text-align: start;&quot;&gt;&lt;font face=&quot;仿宋_GB2312&quot;&gt;&lt;span style=&quot;font-size: 16px;&quot;&gt;改进变化量&lt;/span&gt;&lt;/font&gt;&lt;/div&gt;" style="ellipse;whiteSpace=wrap;html=1;" vertex="1" parent="1">
          <mxGeometry x="770" y="670" width="90" height="50" as="geometry" />
        </mxCell>
        <mxCell id="dhrCfTJYzPtT5JMYGl7l-43" style="rounded=0;orthogonalLoop=1;jettySize=auto;html=1;entryX=0.5;entryY=1;entryDx=0;entryDy=0;endArrow=none;endFill=0;" edge="1" parent="1" source="dhrCfTJYzPtT5JMYGl7l-41" target="dhrCfTJYzPtT5JMYGl7l-29">
          <mxGeometry relative="1" as="geometry">
            <mxPoint x="434" y="659" as="sourcePoint" />
            <mxPoint x="270" y="570" as="targetPoint" />
          </mxGeometry>
        </mxCell>
        <mxCell id="dhrCfTJYzPtT5JMYGl7l-44" style="rounded=0;orthogonalLoop=1;jettySize=auto;html=1;entryX=0.5;entryY=1;entryDx=0;entryDy=0;endArrow=none;endFill=0;" edge="1" parent="1" source="dhrCfTJYzPtT5JMYGl7l-42" target="dhrCfTJYzPtT5JMYGl7l-29">
          <mxGeometry relative="1" as="geometry">
            <mxPoint x="444" y="669" as="sourcePoint" />
            <mxPoint x="280" y="580" as="targetPoint" />
          </mxGeometry>
        </mxCell>
        <mxCell id="dhrCfTJYzPtT5JMYGl7l-45" value="&lt;span style=&quot;text-align: start; font-size: 12pt; font-family: 仿宋_GB2312;&quot;&gt;负荷&lt;/span&gt;&lt;span style=&quot;text-align: start; font-size: 12pt; font-family: &amp;quot;Times New Roman&amp;quot;, serif;&quot; lang=&quot;EN-US&quot;&gt;ID2&lt;/span&gt;&lt;span style=&quot;font-size: medium; text-align: start;&quot;&gt;&lt;/span&gt;" style="ellipse;whiteSpace=wrap;html=1;" vertex="1" parent="1">
          <mxGeometry x="-290" y="340" width="80" height="50" as="geometry" />
        </mxCell>
        <mxCell id="dhrCfTJYzPtT5JMYGl7l-46" value="&lt;span style=&quot;text-align: start; font-size: 12pt; font-family: 仿宋_GB2312;&quot;&gt;负荷&lt;/span&gt;&lt;span style=&quot;text-align: start; font-size: 12pt; font-family: &amp;quot;Times New Roman&amp;quot;, serif;&quot; lang=&quot;EN-US&quot;&gt;ID1&lt;/span&gt;&lt;span style=&quot;font-size: medium; text-align: start;&quot;&gt;&lt;/span&gt;" style="ellipse;whiteSpace=wrap;html=1;" vertex="1" parent="1">
          <mxGeometry x="-210" y="290" width="80" height="50" as="geometry" />
        </mxCell>
        <mxCell id="dhrCfTJYzPtT5JMYGl7l-47" value="&lt;span style=&quot;text-align: start; font-size: 12pt;&quot; lang=&quot;EN-US&quot;&gt;DTW&lt;/span&gt;&lt;span style=&quot;font-size: medium; text-align: start;&quot;&gt;&lt;/span&gt;" style="ellipse;whiteSpace=wrap;html=1;" vertex="1" parent="1">
          <mxGeometry x="-260" y="410" width="80" height="50" as="geometry" />
        </mxCell>
        <mxCell id="dhrCfTJYzPtT5JMYGl7l-48" value="&lt;div style=&quot;text-align: start;&quot;&gt;&lt;span style=&quot;background-color: initial; font-size: 16px;&quot;&gt;&lt;font face=&quot;仿宋_GB2312&quot;&gt;Pearson&lt;/font&gt;&lt;/span&gt;&lt;/div&gt;" style="ellipse;whiteSpace=wrap;html=1;" vertex="1" parent="1">
          <mxGeometry x="-210" y="640" width="80" height="50" as="geometry" />
        </mxCell>
        <mxCell id="dhrCfTJYzPtT5JMYGl7l-49" value="&lt;span style=&quot;text-align: start; font-size: 12pt; font-family: 仿宋_GB2312;&quot;&gt;负荷&lt;/span&gt;&lt;span style=&quot;text-align: start; font-size: 12pt; font-family: &amp;quot;Times New Roman&amp;quot;, serif;&quot; lang=&quot;EN-US&quot;&gt;ID2&lt;/span&gt;&lt;span style=&quot;font-size: medium; text-align: start;&quot;&gt;&lt;/span&gt;" style="ellipse;whiteSpace=wrap;html=1;" vertex="1" parent="1">
          <mxGeometry x="-303" y="570" width="80" height="50" as="geometry" />
        </mxCell>
        <mxCell id="dhrCfTJYzPtT5JMYGl7l-50" value="&lt;span style=&quot;text-align: start; font-size: 12pt; font-family: 仿宋_GB2312;&quot;&gt;负荷&lt;/span&gt;&lt;span style=&quot;text-align: start; font-size: 12pt; font-family: &amp;quot;Times New Roman&amp;quot;, serif;&quot; lang=&quot;EN-US&quot;&gt;ID1&lt;/span&gt;&lt;span style=&quot;font-size: medium; text-align: start;&quot;&gt;&lt;/span&gt;" style="ellipse;whiteSpace=wrap;html=1;" vertex="1" parent="1">
          <mxGeometry x="-250" y="500" width="80" height="50" as="geometry" />
        </mxCell>
        <mxCell id="dhrCfTJYzPtT5JMYGl7l-51" style="rounded=0;orthogonalLoop=1;jettySize=auto;html=1;entryX=0;entryY=0.5;entryDx=0;entryDy=0;endArrow=none;endFill=0;" edge="1" parent="1" source="dhrCfTJYzPtT5JMYGl7l-46" target="dhrCfTJYzPtT5JMYGl7l-28">
          <mxGeometry relative="1" as="geometry">
            <mxPoint x="129" y="300" as="sourcePoint" />
            <mxPoint x="270" y="320" as="targetPoint" />
          </mxGeometry>
        </mxCell>
        <mxCell id="dhrCfTJYzPtT5JMYGl7l-52" style="rounded=0;orthogonalLoop=1;jettySize=auto;html=1;endArrow=none;endFill=0;entryX=0;entryY=0.5;entryDx=0;entryDy=0;" edge="1" parent="1" source="dhrCfTJYzPtT5JMYGl7l-45" target="dhrCfTJYzPtT5JMYGl7l-28">
          <mxGeometry relative="1" as="geometry">
            <mxPoint x="-142" y="347" as="sourcePoint" />
            <mxPoint x="-70" y="330" as="targetPoint" />
          </mxGeometry>
        </mxCell>
        <mxCell id="dhrCfTJYzPtT5JMYGl7l-53" style="rounded=0;orthogonalLoop=1;jettySize=auto;html=1;entryX=0;entryY=0.5;entryDx=0;entryDy=0;endArrow=none;endFill=0;" edge="1" parent="1" source="dhrCfTJYzPtT5JMYGl7l-50" target="dhrCfTJYzPtT5JMYGl7l-30">
          <mxGeometry relative="1" as="geometry">
            <mxPoint x="-132" y="357" as="sourcePoint" />
            <mxPoint x="-80" y="420" as="targetPoint" />
          </mxGeometry>
        </mxCell>
        <mxCell id="dhrCfTJYzPtT5JMYGl7l-54" style="rounded=0;orthogonalLoop=1;jettySize=auto;html=1;endArrow=none;endFill=0;entryX=0;entryY=0.5;entryDx=0;entryDy=0;" edge="1" parent="1" source="dhrCfTJYzPtT5JMYGl7l-47" target="dhrCfTJYzPtT5JMYGl7l-28">
          <mxGeometry relative="1" as="geometry">
            <mxPoint x="-203" y="384" as="sourcePoint" />
            <mxPoint x="-100" y="400" as="targetPoint" />
          </mxGeometry>
        </mxCell>
        <mxCell id="dhrCfTJYzPtT5JMYGl7l-55" style="rounded=0;orthogonalLoop=1;jettySize=auto;html=1;entryX=0;entryY=0.5;entryDx=0;entryDy=0;endArrow=none;endFill=0;" edge="1" parent="1" source="dhrCfTJYzPtT5JMYGl7l-49" target="dhrCfTJYzPtT5JMYGl7l-30">
          <mxGeometry relative="1" as="geometry">
            <mxPoint x="-163" y="545" as="sourcePoint" />
            <mxPoint x="-90" y="565" as="targetPoint" />
          </mxGeometry>
        </mxCell>
        <mxCell id="dhrCfTJYzPtT5JMYGl7l-56" style="rounded=0;orthogonalLoop=1;jettySize=auto;html=1;entryX=0;entryY=0.5;entryDx=0;entryDy=0;endArrow=none;endFill=0;" edge="1" parent="1" source="dhrCfTJYzPtT5JMYGl7l-48" target="dhrCfTJYzPtT5JMYGl7l-30">
          <mxGeometry relative="1" as="geometry">
            <mxPoint x="-153" y="555" as="sourcePoint" />
            <mxPoint x="-80" y="575" as="targetPoint" />
          </mxGeometry>
        </mxCell>
        <mxCell id="dhrCfTJYzPtT5JMYGl7l-57" value="" style="rhombus;whiteSpace=wrap;html=1;" vertex="1" parent="1">
          <mxGeometry x="460" y="315" width="60" height="45" as="geometry" />
        </mxCell>
        <mxCell id="dhrCfTJYzPtT5JMYGl7l-58" value="" style="rhombus;whiteSpace=wrap;html=1;direction=north;rotation=-45;" vertex="1" parent="1">
          <mxGeometry x="480" y="430" width="50" height="54" as="geometry" />
        </mxCell>
        <mxCell id="dhrCfTJYzPtT5JMYGl7l-59" value="" style="rhombus;whiteSpace=wrap;html=1;" vertex="1" parent="1">
          <mxGeometry x="230" y="415" width="60" height="45" as="geometry" />
        </mxCell>
        <mxCell id="dhrCfTJYzPtT5JMYGl7l-60" style="edgeStyle=none;rounded=0;orthogonalLoop=1;jettySize=auto;html=1;exitX=0;exitY=0.5;exitDx=0;exitDy=0;" edge="1" parent="1" source="dhrCfTJYzPtT5JMYGl7l-58" target="dhrCfTJYzPtT5JMYGl7l-58">
          <mxGeometry relative="1" as="geometry" />
        </mxCell>
        <mxCell id="dhrCfTJYzPtT5JMYGl7l-61" style="edgeStyle=none;rounded=0;orthogonalLoop=1;jettySize=auto;html=1;exitX=1;exitY=0.5;exitDx=0;exitDy=0;" edge="1" parent="1" source="dhrCfTJYzPtT5JMYGl7l-59" target="dhrCfTJYzPtT5JMYGl7l-59">
          <mxGeometry relative="1" as="geometry" />
        </mxCell>
        <mxCell id="dhrCfTJYzPtT5JMYGl7l-63" style="rounded=0;orthogonalLoop=1;jettySize=auto;html=1;endArrow=none;endFill=0;" edge="1" parent="1" source="dhrCfTJYzPtT5JMYGl7l-57" target="dhrCfTJYzPtT5JMYGl7l-1">
          <mxGeometry relative="1" as="geometry">
            <mxPoint x="459" y="221" as="sourcePoint" />
            <mxPoint x="270" y="320" as="targetPoint" />
          </mxGeometry>
        </mxCell>
        <mxCell id="dhrCfTJYzPtT5JMYGl7l-69" value="1" style="edgeLabel;html=1;align=center;verticalAlign=middle;resizable=0;points=[];" vertex="1" connectable="0" parent="dhrCfTJYzPtT5JMYGl7l-63">
          <mxGeometry x="-0.2521" y="4" relative="1" as="geometry">
            <mxPoint as="offset" />
          </mxGeometry>
        </mxCell>
        <mxCell id="dhrCfTJYzPtT5JMYGl7l-64" style="rounded=0;orthogonalLoop=1;jettySize=auto;html=1;endArrow=none;endFill=0;exitX=1;exitY=0.5;exitDx=0;exitDy=0;" edge="1" parent="1" source="dhrCfTJYzPtT5JMYGl7l-58" target="dhrCfTJYzPtT5JMYGl7l-1">
          <mxGeometry relative="1" as="geometry">
            <mxPoint x="469" y="231" as="sourcePoint" />
            <mxPoint x="280" y="330" as="targetPoint" />
          </mxGeometry>
        </mxCell>
        <mxCell id="dhrCfTJYzPtT5JMYGl7l-73" value="1" style="edgeLabel;html=1;align=center;verticalAlign=middle;resizable=0;points=[];" vertex="1" connectable="0" parent="dhrCfTJYzPtT5JMYGl7l-64">
          <mxGeometry x="-0.2517" y="1" relative="1" as="geometry">
            <mxPoint as="offset" />
          </mxGeometry>
        </mxCell>
        <mxCell id="dhrCfTJYzPtT5JMYGl7l-65" style="rounded=0;orthogonalLoop=1;jettySize=auto;html=1;endArrow=none;endFill=0;" edge="1" parent="1" source="dhrCfTJYzPtT5JMYGl7l-15" target="dhrCfTJYzPtT5JMYGl7l-57">
          <mxGeometry relative="1" as="geometry">
            <mxPoint x="479" y="241" as="sourcePoint" />
            <mxPoint x="290" y="340" as="targetPoint" />
          </mxGeometry>
        </mxCell>
        <mxCell id="dhrCfTJYzPtT5JMYGl7l-70" value="1" style="edgeLabel;html=1;align=center;verticalAlign=middle;resizable=0;points=[];" vertex="1" connectable="0" parent="dhrCfTJYzPtT5JMYGl7l-65">
          <mxGeometry x="-0.1323" y="4" relative="1" as="geometry">
            <mxPoint as="offset" />
          </mxGeometry>
        </mxCell>
        <mxCell id="dhrCfTJYzPtT5JMYGl7l-66" style="rounded=0;orthogonalLoop=1;jettySize=auto;html=1;endArrow=none;endFill=0;entryX=0;entryY=0.5;entryDx=0;entryDy=0;" edge="1" parent="1" source="dhrCfTJYzPtT5JMYGl7l-29" target="dhrCfTJYzPtT5JMYGl7l-58">
          <mxGeometry relative="1" as="geometry">
            <mxPoint x="496" y="448" as="sourcePoint" />
            <mxPoint x="330" y="376" as="targetPoint" />
          </mxGeometry>
        </mxCell>
        <mxCell id="dhrCfTJYzPtT5JMYGl7l-72" value="1" style="edgeLabel;html=1;align=center;verticalAlign=middle;resizable=0;points=[];" vertex="1" connectable="0" parent="dhrCfTJYzPtT5JMYGl7l-66">
          <mxGeometry x="-0.0794" relative="1" as="geometry">
            <mxPoint as="offset" />
          </mxGeometry>
        </mxCell>
        <mxCell id="dhrCfTJYzPtT5JMYGl7l-67" style="rounded=0;orthogonalLoop=1;jettySize=auto;html=1;endArrow=none;endFill=0;exitX=0.5;exitY=0;exitDx=0;exitDy=0;entryX=0.5;entryY=1;entryDx=0;entryDy=0;" edge="1" parent="1" source="dhrCfTJYzPtT5JMYGl7l-59" target="dhrCfTJYzPtT5JMYGl7l-1">
          <mxGeometry relative="1" as="geometry">
            <mxPoint x="496" y="448" as="sourcePoint" />
            <mxPoint x="330" y="376" as="targetPoint" />
          </mxGeometry>
        </mxCell>
        <mxCell id="dhrCfTJYzPtT5JMYGl7l-74" value="1" style="edgeLabel;html=1;align=center;verticalAlign=middle;resizable=0;points=[];" vertex="1" connectable="0" parent="dhrCfTJYzPtT5JMYGl7l-67">
          <mxGeometry x="-0.2657" y="1" relative="1" as="geometry">
            <mxPoint as="offset" />
          </mxGeometry>
        </mxCell>
        <mxCell id="dhrCfTJYzPtT5JMYGl7l-68" style="rounded=0;orthogonalLoop=1;jettySize=auto;html=1;endArrow=none;endFill=0;entryX=0.5;entryY=1;entryDx=0;entryDy=0;" edge="1" parent="1" source="dhrCfTJYzPtT5JMYGl7l-27" target="dhrCfTJYzPtT5JMYGl7l-59">
          <mxGeometry relative="1" as="geometry">
            <mxPoint x="506" y="458" as="sourcePoint" />
            <mxPoint x="340" y="386" as="targetPoint" />
          </mxGeometry>
        </mxCell>
        <mxCell id="dhrCfTJYzPtT5JMYGl7l-75" value="1" style="edgeLabel;html=1;align=center;verticalAlign=middle;resizable=0;points=[];" vertex="1" connectable="0" parent="dhrCfTJYzPtT5JMYGl7l-68">
          <mxGeometry x="0.1639" y="-2" relative="1" as="geometry">
            <mxPoint as="offset" />
          </mxGeometry>
        </mxCell>
        <mxCell id="dhrCfTJYzPtT5JMYGl7l-80" value="" style="rhombus;whiteSpace=wrap;html=1;rotation=-15;" vertex="1" parent="1">
          <mxGeometry x="80" y="360" width="60" height="45" as="geometry" />
        </mxCell>
        <mxCell id="dhrCfTJYzPtT5JMYGl7l-81" style="rounded=0;orthogonalLoop=1;jettySize=auto;html=1;endArrow=none;endFill=0;" edge="1" parent="1" source="dhrCfTJYzPtT5JMYGl7l-80" target="dhrCfTJYzPtT5JMYGl7l-1">
          <mxGeometry relative="1" as="geometry">
            <mxPoint x="496" y="448" as="sourcePoint" />
            <mxPoint x="330" y="376" as="targetPoint" />
          </mxGeometry>
        </mxCell>
        <mxCell id="dhrCfTJYzPtT5JMYGl7l-82" value="1" style="edgeLabel;html=1;align=center;verticalAlign=middle;resizable=0;points=[];" vertex="1" connectable="0" parent="dhrCfTJYzPtT5JMYGl7l-81">
          <mxGeometry x="-0.2517" y="1" relative="1" as="geometry">
            <mxPoint as="offset" />
          </mxGeometry>
        </mxCell>
        <mxCell id="dhrCfTJYzPtT5JMYGl7l-83" style="rounded=0;orthogonalLoop=1;jettySize=auto;html=1;endArrow=none;endFill=0;entryX=0;entryY=0.5;entryDx=0;entryDy=0;exitX=1;exitY=0.75;exitDx=0;exitDy=0;" edge="1" parent="1" source="dhrCfTJYzPtT5JMYGl7l-28" target="dhrCfTJYzPtT5JMYGl7l-80">
          <mxGeometry relative="1" as="geometry">
            <mxPoint x="148" y="384" as="sourcePoint" />
            <mxPoint x="210" y="367" as="targetPoint" />
          </mxGeometry>
        </mxCell>
        <mxCell id="dhrCfTJYzPtT5JMYGl7l-84" value="n" style="edgeLabel;html=1;align=center;verticalAlign=middle;resizable=0;points=[];" vertex="1" connectable="0" parent="dhrCfTJYzPtT5JMYGl7l-83">
          <mxGeometry x="-0.2517" y="1" relative="1" as="geometry">
            <mxPoint as="offset" />
          </mxGeometry>
        </mxCell>
        <mxCell id="dhrCfTJYzPtT5JMYGl7l-85" value="" style="rhombus;whiteSpace=wrap;html=1;rotation=-30;" vertex="1" parent="1">
          <mxGeometry x="70" y="460" width="60" height="45" as="geometry" />
        </mxCell>
        <mxCell id="dhrCfTJYzPtT5JMYGl7l-86" style="rounded=0;orthogonalLoop=1;jettySize=auto;html=1;endArrow=none;endFill=0;exitX=1;exitY=0.5;exitDx=0;exitDy=0;" edge="1" parent="1" source="dhrCfTJYzPtT5JMYGl7l-85" target="dhrCfTJYzPtT5JMYGl7l-1">
          <mxGeometry relative="1" as="geometry">
            <mxPoint x="148" y="384" as="sourcePoint" />
            <mxPoint x="210" y="367" as="targetPoint" />
          </mxGeometry>
        </mxCell>
        <mxCell id="dhrCfTJYzPtT5JMYGl7l-87" value="1" style="edgeLabel;html=1;align=center;verticalAlign=middle;resizable=0;points=[];" vertex="1" connectable="0" parent="dhrCfTJYzPtT5JMYGl7l-86">
          <mxGeometry x="-0.2517" y="1" relative="1" as="geometry">
            <mxPoint as="offset" />
          </mxGeometry>
        </mxCell>
        <mxCell id="dhrCfTJYzPtT5JMYGl7l-88" style="rounded=0;orthogonalLoop=1;jettySize=auto;html=1;endArrow=none;endFill=0;entryX=0;entryY=0.5;entryDx=0;entryDy=0;" edge="1" parent="1" source="dhrCfTJYzPtT5JMYGl7l-30" target="dhrCfTJYzPtT5JMYGl7l-85">
          <mxGeometry relative="1" as="geometry">
            <mxPoint x="20" y="425" as="sourcePoint" />
            <mxPoint x="90" y="410" as="targetPoint" />
          </mxGeometry>
        </mxCell>
        <mxCell id="dhrCfTJYzPtT5JMYGl7l-89" value="n" style="edgeLabel;html=1;align=center;verticalAlign=middle;resizable=0;points=[];" vertex="1" connectable="0" parent="dhrCfTJYzPtT5JMYGl7l-88">
          <mxGeometry x="-0.2517" y="1" relative="1" as="geometry">
            <mxPoint as="offset" />
          </mxGeometry>
        </mxCell>
      </root>
    </mxGraphModel>
  </diagram>
</mxfile>
